<?xml version="1.0" encoding="UTF-8"?><svg id="a" xmlns="http://www.w3.org/2000/svg" xmlns:xlink="http://www.w3.org/1999/xlink" viewBox="0 0 371.03 371.03"><defs><style>.o{fill:url(#k);}.p{fill:url(#d);}.p,.q,.r,.s{opacity:.75;}.q{fill:url(#f);}.r{fill:url(#g);}.t{fill:url(#l);}.u{fill:url(#j);}.v{fill:url(#i);}.w{fill:url(#b);}.s{fill:url(#e);}.x{fill:#82bb27;stroke:#67b32e;stroke-miterlimit:10;stroke-width:1.9px;}</style><radialGradient id="b" cx="185.51" cy="185.51" fx="185.51" fy="185.51" r="172.4" gradientUnits="userSpaceOnUse"><stop offset="0" stop-color="#fff"/><stop offset=".72" stop-color="#f7f8dd"/><stop offset=".94" stop-color="#f1f2c1"/><stop offset="1" stop-color="#f7f6d2" stop-opacity="0"/></radialGradient><radialGradient id="d" cx="262.75" cy="107.67" fx="262.75" fy="107.67" r="66.47" gradientUnits="userSpaceOnUse"><stop offset="0" stop-color="#c6c6c6"/><stop offset="1" stop-color="#9d9d9c"/></radialGradient><radialGradient id="e" cx="107.68" cy="108.28" fx="107.68" fy="108.28" r="66.47" xlink:href="#d"/><radialGradient id="f" cx="108.28" cy="263.35" fx="108.28" fy="263.35" r="66.47" xlink:href="#d"/><radialGradient id="g" cx="263.35" cy="262.75" fx="263.35" fy="262.75" r="66.47" xlink:href="#d"/><radialGradient id="i" cx="184.28" cy="100.75" fx="184.28" fy="100.75" r="61.41" gradientUnits="userSpaceOnUse"><stop offset="0" stop-color="#adca1e"/><stop offset="1" stop-color="#89be31"/></radialGradient><radialGradient id="j" cx="270.28" cy="184.28" fx="270.28" fy="184.28" r="61.41" xlink:href="#i"/><radialGradient id="k" cx="186.75" cy="270.28" fx="186.75" fy="270.28" r="61.41" xlink:href="#i"/><radialGradient id="l" cx="100.75" cy="186.75" fx="100.75" fy="186.75" r="61.41" xlink:href="#i"/></defs><circle class="x" cx="185.51" cy="185.51" r="175.49"/><circle class="w" cx="185.51" cy="185.51" r="172.4"/><g id="c"><path class="p" d="M196.72,169.51l52.17-125.63c1.41-3.5,6.26-3.86,8.13-.58,15.88,27.96,40.1,51.41,69.72,68.15,3.27,1.85,3,6.65-.46,8.12l-124.96,54.47c-2.86,1.22-5.77-1.64-4.6-4.52Z"/><path class="s" d="M169.51,174.31l-125.63-52.17c-3.5-1.41-3.86-6.26-.58-8.13,27.96-15.88,51.41-40.1,68.15-69.72,1.85-3.27,6.65-3,8.12.46l54.47,124.96c1.22,2.86-1.64,5.77-4.52,4.6Z"/><path class="q" d="M174.31,201.52l-52.17,125.63c-1.41,3.5-6.26,3.86-8.13.58-15.88-27.96-40.1-51.41-69.72-68.15-3.27-1.85-3-6.65.46-8.12l124.96-54.47c2.86-1.22,5.77,1.64,4.6,4.52Z"/><path class="r" d="M201.52,196.72l125.63,52.17c3.5,1.41,3.86,6.26.58,8.13-27.96,15.88-51.41,40.1-68.15,69.72-1.85,3.27-6.65,3-8.12-.46l-54.47-124.96c-1.22-2.86,1.64-5.77,4.52-4.6Z"/></g><g id="h"><path class="v" d="M182.12,166.27l-51.94-125.72c-1.47-3.47,1.7-7.16,5.34-6.16,31,8.54,64.71,8,97.49-1.11,3.62-1.01,6.82,2.58,5.42,6.06l-49.85,126.87c-1.17,2.89-5.24,2.92-6.45.06Z"/><path class="u" d="M204.76,182.12l125.72-51.94c3.47-1.47,7.16,1.7,6.16,5.34-8.54,31-8,64.71,1.11,97.49,1.01,3.62-2.58,6.82-6.06,5.42l-126.87-49.85c-2.89-1.17-2.92-5.24-.06-6.45Z"/><path class="o" d="M188.91,204.76l51.94,125.72c1.47,3.47-1.7,7.16-5.34,6.16-31-8.54-64.71-8-97.49,1.11-3.62,1.01-6.82-2.58-5.42-6.06l49.85-126.87c1.17-2.89,5.24-2.92,6.45-.06Z"/><path class="t" d="M166.27,188.91l-125.72,51.94c-3.47,1.47-7.16-1.7-6.16-5.34,8.54-31,8-64.71-1.11-97.49-1.01-3.62,2.58-6.82,6.06-5.42l126.87,49.85c2.89,1.17,2.92,5.24.06,6.45Z"/></g></svg>